<svg width="1251" height="786" viewBox="0 0 1251 786" fill="none" xmlns="http://www.w3.org/2000/svg">
<path opacity="0.5" d="M471.238 302.103C472.343 302.709 473.473 303.342 474.576 303.973C475.251 304.275 475.952 304.579 476.627 304.881C474.849 303.948 473.045 303.013 471.238 302.103ZM-61.8677 288.419C-62.3359 288.762 -62.8014 289.08 -63.2697 289.424C-62.2656 288.873 -61.2616 288.323 -60.2281 287.749C-60.764 287.956 -61.3294 288.186 -61.8677 288.419ZM462.114 297.625C463.933 298.692 465.775 299.787 467.591 300.88C469.097 301.551 470.605 302.196 472.137 302.87C470.365 301.886 468.568 300.873 466.82 299.917C465.241 299.161 463.69 298.407 462.114 297.625ZM457.659 294.993C458.275 295.341 458.889 295.714 459.475 296.085C460.328 296.509 461.207 296.935 462.086 297.362C460.596 296.536 459.128 295.764 457.659 294.993ZM-68.5482 292.593C-68.968 292.994 -69.4118 293.366 -69.8316 293.767C-68.8977 293.105 -67.9639 292.443 -67.0008 291.759C-67.5149 292.02 -68.0315 292.306 -68.5482 292.593ZM-65.6583 289.992C-66.3722 290.624 -67.0566 291.232 -67.7436 291.867C-66.911 291.403 -66.0783 290.94 -65.2188 290.479C-64.4616 289.956 -63.7018 289.407 -62.9151 288.861C-63.8474 289.236 -64.7529 289.614 -65.6583 289.992ZM-74.5927 297.456L-75.7252 298.749C-74.8911 297.999 -74.0544 297.224 -73.1909 296.451L-74.5927 297.456ZM453.838 293.621C456.058 295.015 458.304 296.411 460.548 297.833C462.29 298.58 464.005 299.324 465.747 300.071C463.625 298.791 461.475 297.509 459.374 296.283C457.511 295.394 455.677 294.482 453.838 293.621ZM446.587 289.122C448.427 290.243 450.265 291.39 452.127 292.565C453.654 293.29 455.184 293.99 456.735 294.744C454.815 293.615 452.913 292.566 450.992 291.436C449.524 290.665 448.058 289.867 446.587 289.122ZM440.913 285.665C441.834 286.225 442.754 286.786 443.674 287.346C444.19 287.606 444.706 287.866 445.223 288.126C443.786 287.306 442.35 286.485 440.913 285.665ZM-72.0208 294.511C-72.635 295.231 -73.2761 295.948 -73.8877 296.642L-72.3975 295.567L-71.6083 294.995C-70.9213 294.361 -70.2368 293.752 -69.523 293.121L-72.0208 294.511ZM-69.422 291.569C-70.1271 292.383 -70.8295 293.172 -71.532 293.961C-70.5869 293.457 -69.6659 292.924 -68.6914 292.397C-67.916 291.693 -67.1408 290.99 -66.3386 290.289C-67.3835 290.705 -68.4041 291.15 -69.422 291.569ZM-79.996 302.956C-80.3134 303.419 -80.6601 303.905 -80.9776 304.368C-80.2456 303.556 -79.5112 302.719 -78.7473 301.858C-79.1912 302.23 -79.6058 302.579 -79.996 302.956ZM-77.7446 299.693C-78.2861 300.498 -78.8516 301.274 -79.3879 302.028C-78.7303 301.417 -78.0459 300.808 -77.3615 300.2C-76.7499 299.506 -76.1356 298.786 -75.4946 298.069C-76.2569 298.644 -77.0142 299.167 -77.7446 299.693ZM-75.4665 296.432L-76.6696 298.16L-77.3338 299.109C-76.4882 298.517 -75.6402 297.898 -74.7921 297.28L-74.7012 297.185C-74.0282 296.419 -73.3552 295.654 -72.6796 294.862L-72.9366 294.992L-75.4665 296.432ZM-73.1858 293.145C-73.8501 294.094 -74.5142 295.043 -75.1491 295.969L-73.0528 294.799L-72.1907 294.312C-71.4563 293.474 -70.7217 292.636 -69.9578 291.775C-71.0615 292.238 -72.1385 292.703 -73.1858 293.145ZM446.533 290.21C448.901 291.748 451.314 293.369 453.701 294.987C455.497 295.74 457.32 296.495 459.115 297.247C456.745 295.734 454.348 294.219 451.999 292.761C450.187 291.903 448.347 291.042 446.533 290.21ZM438.307 284.883C440.575 286.334 442.817 287.781 445.082 289.258C446.819 290.056 448.58 290.883 450.341 291.71C448.068 290.311 445.819 288.941 443.57 287.57C441.79 286.663 440.063 285.762 438.307 284.883ZM431.328 280.385C432.961 281.407 434.589 282.481 436.243 283.558C437.714 284.303 439.185 285.049 440.654 285.821C438.892 284.734 437.1 283.669 435.335 282.608C434.001 281.85 432.664 281.117 431.328 280.385ZM426.302 277.227C426.837 277.567 427.373 277.907 427.935 278.249C428.604 278.603 429.298 278.984 429.965 279.363C428.739 278.616 427.531 277.949 426.302 277.227ZM-84.8012 308.985C-85.0675 309.479 -85.3606 309.97 -85.6269 310.464C-84.9973 309.59 -84.3676 308.716 -83.7328 307.79C-84.0719 308.199 -84.4378 308.605 -84.8012 308.985ZM-82.8514 305.483C-83.3174 306.347 -83.7809 307.186 -84.2443 308.025C-83.6647 307.38 -83.0556 306.712 -82.4466 306.044C-81.9103 305.29 -81.3714 304.511 -80.8032 303.709C-81.5119 304.289 -82.1694 304.9 -82.8514 305.483ZM-80.8965 301.929C-81.429 302.917 -81.9591 303.88 -82.4865 304.816C-81.7433 304.162 -80.9705 303.484 -80.1953 302.78C-79.5924 301.903 -78.9627 301.029 -78.3574 300.126C-79.2055 300.744 -80.0509 301.337 -80.8965 301.929ZM-78.9096 298.327L-79.2424 298.944L-80.6008 301.412C-79.7258 300.797 -78.8213 300.158 -77.917 299.519L-76.8715 298.01L-75.9564 296.721C-76.9872 297.269 -77.9618 297.797 -78.9096 298.327ZM-76.9226 294.724C-77.5192 295.81 -78.1133 296.87 -78.6804 297.933C-77.6765 297.383 -76.6724 296.832 -75.6389 296.258C-74.9722 295.284 -74.3054 294.309 -73.6116 293.337L-75.9904 294.349L-76.9226 294.724ZM438.913 286.688C441.526 288.486 444.166 290.285 446.83 292.114C448.707 292.874 450.607 293.663 452.508 294.452C449.992 292.768 447.449 291.082 444.981 289.456C442.933 288.522 440.911 287.591 438.913 286.688ZM430.331 280.858C432.82 282.539 435.285 284.191 437.799 285.9C439.667 286.738 441.533 287.601 443.426 288.467C440.98 286.895 438.561 285.325 436.142 283.756C434.177 282.804 432.243 281.804 430.331 280.858ZM422.175 275.382C424.387 276.853 426.596 278.35 428.832 279.849C430.564 280.699 432.323 281.552 434.052 282.427C431.964 281.073 429.873 279.745 427.807 278.445C425.927 277.45 424.028 276.375 422.175 275.382ZM414.439 270.314C416.374 271.574 418.284 272.807 420.243 274.096C421.528 274.797 422.819 275.447 424.132 276.151C422.577 275.162 420.992 274.197 419.434 273.234C417.769 272.261 416.08 271.259 414.439 270.314ZM410.085 267.483C410.494 267.732 410.901 268.007 411.28 268.279C411.692 268.503 412.103 268.726 412.515 268.95C411.697 268.451 410.876 267.979 410.085 267.483ZM-89.0032 315.49C-89.2452 316.013 -89.4578 316.512 -89.6973 317.009C-89.1724 316.098 -88.6208 315.19 -88.0934 314.253C-88.3788 314.667 -88.691 315.079 -89.0032 315.49ZM-87.3283 311.752C-87.7163 312.651 -88.1312 313.547 -88.5166 314.419C-88.015 313.74 -87.4812 313.013 -86.9502 312.311C-86.4893 311.498 -86.0259 310.659 -85.5357 309.823C-86.1447 310.491 -86.7511 311.133 -87.3283 311.752ZM-85.6747 307.96C-86.1321 309.008 -86.5868 310.03 -87.0145 311.055C-86.3466 310.34 -85.6761 309.6 -85.0056 308.86C-84.4782 307.924 -83.9482 306.961 -83.4182 305.999C-84.1883 306.651 -84.9315 307.306 -85.6747 307.96ZM-84.0163 304.117C-84.5081 305.239 -84.9705 306.338 -85.4329 307.438C-84.6601 306.76 -83.858 306.059 -83.0264 305.335C-82.4644 304.324 -81.9024 303.313 -81.3378 302.276C-82.2664 302.886 -83.1414 303.501 -84.0163 304.117ZM-82.3526 300.222C-82.8495 301.395 -83.344 302.544 -83.8383 303.692C-82.9366 303.079 -82.0322 302.44 -81.0984 301.779C-80.5683 300.816 -80.0384 299.854 -79.5057 298.866L-79.37 298.593C-80.3446 299.12 -81.3754 299.668 -82.3526 300.222ZM-80.6596 296.303C-81.1565 297.477 -81.6507 298.625 -82.1452 299.774L-82.1823 299.874C-81.1783 299.324 -80.1449 298.75 -79.1115 298.176C-78.5149 297.09 -77.9182 296.005 -77.3191 294.893C-78.4496 295.353 -79.5828 295.838 -80.6596 296.303ZM431.775 283.502C434.537 285.444 437.293 287.438 440.076 289.434C441.979 290.197 443.858 290.931 445.761 291.694C443.048 289.809 440.333 287.95 437.668 286.121C435.695 285.247 433.749 284.376 431.775 283.502ZM422.937 277.255C425.523 279.05 428.128 280.924 430.736 282.773C432.659 283.616 434.605 284.487 436.551 285.359C433.911 283.559 431.32 281.816 428.702 280.07C426.763 279.121 424.849 278.201 422.937 277.255ZM414.212 271.228C416.699 272.935 419.158 274.638 421.669 276.373C423.506 277.26 425.342 278.146 427.176 279.059C424.813 277.469 422.451 275.879 420.112 274.317C418.157 273.263 416.17 272.257 414.212 271.228ZM406.168 265.712C408.275 267.146 410.38 268.606 412.511 270.069C414.316 271.004 416.12 271.94 417.922 272.901C415.656 271.425 413.418 269.951 411.176 268.503C409.509 267.556 407.838 266.634 406.168 265.712ZM398.192 260.332C400.022 261.557 401.852 262.781 403.706 264.034C405.196 264.86 406.659 265.683 408.149 266.509C406.341 265.339 404.533 264.169 402.722 263.024C401.213 262.118 399.677 261.21 398.192 260.332ZM393.999 257.518C394.303 257.731 394.634 257.946 394.965 258.162C395.221 258.317 395.479 258.447 395.735 258.603C395.148 258.232 394.562 257.861 393.999 257.518ZM-92.6407 322.312C-92.829 322.84 -93.0173 323.368 -93.2031 323.87C-92.7588 322.951 -92.3145 322.032 -91.8381 321.065C-92.0967 321.481 -92.3553 321.898 -92.6407 322.312ZM-91.248 318.416C-91.5875 319.371 -91.8976 320.304 -92.2319 321.207C-91.7814 320.497 -91.3283 319.762 -90.875 319.026C-90.4653 318.182 -90.0773 317.283 -89.665 316.413C-90.2203 317.087 -90.7219 317.766 -91.248 318.416ZM-89.8744 314.44C-90.2562 315.547 -90.6086 316.631 -90.9852 317.687C-90.3953 316.939 -89.8029 316.165 -89.2078 315.366C-88.7558 314.369 -88.3012 313.347 -87.8464 312.325C-88.5413 313.037 -89.2091 313.751 -89.8744 314.44ZM-88.5199 310.384C-88.9096 311.568 -89.2966 312.727 -89.6835 313.886C-88.9861 313.149 -88.262 312.414 -87.5596 311.625C-87.0997 310.552 -86.6105 309.455 -86.1213 308.358C-86.9477 309.031 -87.723 309.734 -88.5199 310.384ZM-87.1579 306.25C-87.5794 307.483 -87.9741 308.72 -88.3662 309.93C-87.5667 309.255 -86.7378 308.557 -85.9036 307.807C-85.4118 306.685 -84.9175 305.537 -84.4231 304.388C-85.3543 305.024 -86.2586 305.663 -87.1579 306.25ZM-85.7905 302.065C-86.2172 303.35 -86.6146 304.612 -87.0361 305.846C-86.1344 305.233 -85.2031 304.597 -84.2425 303.938C-83.7456 302.764 -83.2486 301.59 -82.7223 300.393C-83.7584 300.992 -84.789 301.54 -85.7905 302.065ZM-84.3938 297.857L-85.2896 300.579L-85.6765 301.738C-84.6726 301.187 -83.6148 300.642 -82.552 300.045L-82.3792 299.672C-81.9193 298.599 -81.4594 297.525 -80.9997 296.452C-82.1596 296.934 -83.2902 297.394 -84.3938 297.857ZM424.581 280.335C427.461 282.446 430.366 284.584 433.267 286.749C435.2 287.489 437.181 288.286 439.135 289.08C436.277 287.024 433.44 285.022 430.603 283.02C428.608 282.092 426.584 281.186 424.581 280.335ZM415.306 273.576C418.113 275.601 420.893 277.624 423.722 279.703C425.671 280.548 427.62 281.394 429.567 282.266C426.884 280.357 424.2 278.449 421.539 276.595C419.471 275.581 417.376 274.564 415.306 273.576ZM406.354 267.11C408.962 268.959 411.616 270.89 414.245 272.793C416.213 273.719 418.206 274.673 420.198 275.627C417.588 273.804 414.999 272.036 412.386 270.238C410.398 269.233 408.338 268.142 406.354 267.11ZM397.413 260.801C399.948 262.565 402.454 264.351 405.013 266.143C406.896 267.112 408.829 268.113 410.739 269.084C408.354 267.44 405.967 265.822 403.605 264.232C401.52 263.112 399.444 261.916 397.413 260.801ZM389.277 255.12C391.433 256.611 393.589 258.102 395.766 259.647C397.541 260.606 399.338 261.619 401.113 262.577C399.03 261.171 396.92 259.763 394.862 258.385C392.992 257.287 391.122 256.189 389.277 255.12ZM381.793 249.972C383.367 251.04 384.963 252.163 386.562 253.26C388.1 254.143 389.688 255.083 391.224 255.991C389.442 254.824 387.688 253.659 385.904 252.517C384.553 251.654 383.173 250.813 381.793 249.972ZM377.121 246.797C377.299 246.919 377.477 247.041 377.657 247.137C377.912 247.293 378.192 247.477 378.448 247.633C377.988 247.352 377.555 247.075 377.121 246.797ZM-94.627 325.368C-94.886 326.331 -95.1718 327.292 -95.4282 328.23C-95.0314 327.514 -94.6562 326.745 -94.2542 325.978C-93.9224 325.1 -93.5881 324.196 -93.2512 323.266C-93.7311 323.999 -94.1791 324.684 -94.627 325.368ZM-93.5386 321.259C-93.8424 322.4 -94.1437 323.516 -94.4424 324.605C-93.9304 323.823 -93.4185 323.041 -92.8745 322.211C-92.5005 321.181 -92.1237 320.125 -91.7445 319.043C-92.3345 319.791 -92.9512 320.537 -93.5386 321.259ZM-92.4371 317.021C-92.7514 318.266 -93.0629 319.484 -93.3719 320.677C-92.7552 319.932 -92.1063 319.137 -91.4818 318.314C-91.0975 317.181 -90.6861 316.051 -90.2966 314.866C-91.0233 315.627 -91.745 316.336 -92.4371 317.021ZM-91.3574 312.729C-91.6767 314.025 -91.9961 315.321 -92.3103 316.565C-91.5886 315.857 -90.835 315.099 -90.1057 314.312C-89.7162 313.128 -89.2972 311.92 -88.8757 310.686C-89.7314 311.382 -90.5605 312.08 -91.3574 312.729ZM-90.2943 308.332C-90.6187 309.679 -90.9406 311.001 -91.2625 312.322C-90.436 311.65 -89.6097 310.978 -88.7512 310.256C-88.3297 309.023 -87.9326 307.761 -87.5083 306.501C-88.4396 307.137 -89.3683 307.747 -90.2943 308.332ZM-89.199 303.885C-89.5261 305.258 -89.8532 306.631 -90.2045 307.976C-89.2758 307.366 -88.3472 306.756 -87.3866 306.097C-86.9624 304.838 -86.5358 303.552 -86.1334 302.239C-87.1668 302.812 -88.1975 303.36 -89.199 303.885ZM-88.1256 299.384L-88.595 301.368L-89.112 303.555C-88.1105 303.031 -87.0503 302.46 -85.99 301.889L-85.5234 300.477L-84.7046 297.982C-85.8645 298.465 -87.0245 298.948 -88.1256 299.384ZM417.689 277.407C420.663 279.657 423.662 281.936 426.658 284.24C428.566 284.951 430.502 285.665 432.407 286.403C429.454 284.207 426.499 282.037 423.594 279.898C421.619 279.05 419.667 278.23 417.689 277.407ZM408.154 270.258C411.031 272.394 413.931 274.584 416.857 276.777C418.808 277.597 420.76 278.417 422.736 279.266C419.829 277.153 416.97 275.097 414.115 273.015C412.12 272.086 410.149 271.186 408.154 270.258ZM398.811 263.362C401.589 265.41 404.394 267.461 407.193 269.563C409.137 270.461 411.081 271.358 413.049 272.283C410.293 270.29 407.561 268.324 404.851 266.413C402.842 265.353 400.825 264.371 398.811 263.362ZM389.818 256.762C392.397 258.634 395.024 260.563 397.651 262.491C399.614 263.469 401.577 264.446 403.537 265.449C400.905 263.572 398.27 261.72 395.66 259.897C393.68 258.814 391.749 257.788 389.818 256.762ZM380.839 250.293C383.318 252.077 385.797 253.861 388.3 255.673C390.204 256.696 392.111 257.694 394.015 258.717C391.48 256.954 388.969 255.219 386.458 253.484C384.559 252.409 382.711 251.365 380.839 250.293ZM372.356 244.29C374.56 245.838 376.762 247.412 379.017 248.991C380.685 249.939 382.331 250.833 384.023 251.809C381.84 250.315 379.658 248.821 377.526 247.358C375.788 246.299 374.096 245.323 372.356 244.29ZM364.782 238.951C366.429 240.105 368.074 241.285 369.748 242.441C371.104 243.254 372.486 244.069 373.869 244.884C372.193 243.753 370.543 242.625 368.891 241.523C367.511 240.682 366.136 239.789 364.782 238.951ZM360.42 235.938C360.546 236.028 360.7 236.122 360.826 236.213L361.184 236.431C360.928 236.275 360.675 236.093 360.42 235.938ZM-92.6292 305.651C-92.886 307.135 -93.1108 308.571 -93.3625 310.004C-92.4365 309.419 -91.4811 308.812 -90.4961 308.181C-90.1717 306.834 -89.8151 305.438 -89.4855 304.039C-90.5727 304.607 -91.6277 305.126 -92.6292 305.651ZM-91.828 300.889L-92.0372 302.169L-92.569 305.319C-91.5407 304.797 -90.5125 304.274 -89.4253 303.706L-88.8314 301.292L-88.4069 299.486C-89.5963 299.992 -90.7269 300.452 -91.828 300.889ZM410.637 274.438C413.731 276.856 416.851 279.276 419.995 281.725C421.931 282.439 423.914 283.211 425.849 283.925C422.802 281.589 419.752 279.28 416.726 276.999C414.723 276.148 412.67 275.265 410.637 274.438ZM400.87 266.901C403.869 269.179 406.887 271.537 409.908 273.87C411.886 274.693 413.916 275.546 415.921 276.372C412.971 274.15 409.994 271.926 407.094 269.736C405.016 268.825 402.946 267.837 400.87 266.901ZM391.22 259.558C394.146 261.75 397.067 263.995 400.041 266.245C402.066 267.15 404.112 268.11 406.134 269.041C403.229 266.902 400.376 264.794 397.523 262.687C395.428 261.67 393.287 260.571 391.22 259.558ZM381.787 252.471C384.614 254.575 387.413 256.678 390.264 258.811C392.281 259.794 394.319 260.831 396.336 261.813C393.606 259.822 390.877 257.831 388.199 255.871C386.061 254.746 383.901 253.567 381.787 252.471ZM372.649 245.699C375.252 247.6 377.874 249.58 380.498 251.535C382.534 252.597 384.618 253.717 386.651 254.805C384.046 252.931 381.467 251.059 378.886 249.213C376.834 248.044 374.731 246.845 372.649 245.699ZM363.629 239.096C366.081 240.877 368.533 242.658 370.98 244.491C372.984 245.603 375.036 246.771 377.064 247.911C374.559 246.124 372.099 244.421 369.617 242.663C367.621 241.474 365.601 240.257 363.629 239.096ZM355.156 232.99C357.358 234.564 359.586 236.141 361.809 237.769C363.553 238.776 365.293 239.809 367.034 240.842C364.905 239.354 362.8 237.894 360.723 236.436C358.858 235.287 356.996 234.111 355.156 232.99ZM347.97 227.846C349.412 228.876 350.882 229.908 352.322 230.963C353.729 231.806 355.131 232.701 356.562 233.573C354.912 232.445 353.292 231.294 351.667 230.194C350.391 229.39 349.194 228.619 347.97 227.846ZM343.36 224.6L343.411 224.631L343.462 224.662L343.36 224.6ZM403.939 271.737C407.129 274.269 410.344 276.829 413.583 279.418C415.494 280.104 417.38 280.761 419.291 281.447C416.122 278.969 412.978 276.52 409.831 274.097C407.85 273.3 405.893 272.531 403.939 271.737ZM393.883 263.833C397.001 266.28 400.092 268.723 403.258 271.227C405.215 271.995 407.145 272.761 409.099 273.555C406.03 271.165 402.958 268.802 399.908 266.492C397.886 265.561 395.91 264.713 393.883 263.833ZM384.076 256.162C387.045 258.463 390.063 260.822 393.078 263.206C395.079 264.083 397.054 264.931 399.052 265.834C396.053 263.555 393.081 261.28 390.133 259.032C388.117 258.05 386.095 257.119 384.076 256.162ZM374.384 248.685C377.281 250.901 380.202 253.145 383.144 255.444C385.163 256.401 387.158 257.329 389.175 258.312C386.225 256.09 383.323 253.926 380.421 251.761C378.385 250.699 376.396 249.719 374.384 248.685ZM364.806 241.427C367.63 243.557 370.454 245.688 373.299 247.873C375.287 248.879 377.223 249.853 379.234 250.888C376.432 248.811 373.657 246.737 370.876 244.715C368.848 243.575 366.839 242.515 364.806 241.427ZM355.605 234.467C358.23 236.422 360.878 238.405 363.525 240.414C365.48 241.468 367.435 242.523 369.415 243.606C366.839 241.708 364.263 239.81 361.708 237.967C359.656 236.799 357.631 235.633 355.605 234.467ZM346.59 227.812C349.016 229.591 351.438 231.395 353.885 233.228C355.835 234.334 357.81 235.468 359.784 236.603C357.257 234.762 354.724 232.973 352.218 231.187C350.327 230.034 348.457 228.936 346.59 227.812ZM337.848 221.419C340.071 223.047 342.297 224.65 344.572 226.309C346.285 227.339 348.026 228.372 349.739 229.403C347.562 227.857 345.436 226.343 343.28 224.852C341.469 223.708 339.661 222.538 337.848 221.419ZM330.721 216.229C332.187 217.287 333.652 218.37 335.146 219.431C336.397 220.207 337.623 220.954 338.899 221.759C337.531 220.789 336.137 219.816 334.794 218.875C333.419 217.983 332.069 217.119 330.721 216.229ZM397.133 269.026C400.394 271.669 403.676 274.367 407.01 277.095C408.947 277.783 410.912 278.474 412.847 279.188C409.584 276.571 406.342 274.008 403.127 271.448C401.149 270.625 399.117 269.797 397.133 269.026ZM386.794 260.703C390.006 263.289 393.221 265.85 396.482 268.493C398.465 269.264 400.47 270.089 402.452 270.886C399.261 268.354 396.119 265.879 392.975 263.43C390.923 262.522 388.848 261.585 386.794 260.703ZM376.698 252.665C379.813 255.137 382.928 257.609 386.091 260.138C388.121 260.992 390.17 261.926 392.197 262.805C389.13 260.39 386.061 258 383.04 255.668C380.916 254.675 378.797 253.63 376.698 252.665ZM366.873 244.888C369.84 247.215 372.829 249.596 375.844 251.981C377.917 252.943 380.012 253.959 382.109 254.95C379.113 252.646 376.17 250.347 373.222 248.1C371.079 247.026 368.965 245.93 366.873 244.888ZM356.961 237.18C359.906 239.453 362.848 241.752 365.842 244.082C367.907 245.121 370.048 246.22 372.138 247.288C369.19 245.041 366.291 242.851 363.391 240.661C361.258 239.484 359.072 238.302 356.961 237.18ZM347.468 229.879C350.265 232.007 353.06 234.161 355.879 236.343C357.939 237.434 360.023 238.554 362.08 239.67C359.281 237.568 356.532 235.497 353.781 233.452C351.654 232.224 349.574 231.053 347.468 229.879ZM338.197 222.808C340.819 224.788 343.49 226.826 346.133 228.86C348.11 229.969 350.09 231.052 352.064 232.187C349.515 230.292 346.966 228.397 344.441 226.53C342.37 225.282 340.274 224.005 338.197 222.808ZM329.093 215.962C331.567 217.797 334.038 219.659 336.509 221.52C338.43 222.649 340.351 223.778 342.296 224.936C339.844 223.155 337.443 221.405 335.015 219.652C333.051 218.414 331.06 217.174 329.093 215.962ZM320.56 209.642C322.681 211.208 324.778 212.745 326.899 214.311C328.688 215.401 330.526 216.548 332.312 217.664C330.035 216.03 327.81 214.428 325.557 212.823C323.873 211.769 322.215 210.719 320.56 209.642ZM313.183 204.244C314.649 205.302 316.138 206.414 317.602 207.498C318.902 208.331 320.204 209.138 321.504 209.971C320.136 209.001 318.796 208.034 317.453 207.092C316.032 206.117 314.609 205.168 313.183 204.244ZM390.524 266.517C393.855 269.272 397.234 272.083 400.611 274.919C402.5 275.551 404.389 276.182 406.303 276.842C402.969 274.114 399.663 271.388 396.375 268.742C394.418 267.974 392.483 267.26 390.524 266.517ZM380.052 257.895C383.337 260.566 386.617 263.289 389.948 266.043C391.88 266.783 393.815 267.497 395.775 268.24C392.49 265.568 389.224 262.977 385.988 260.362C383.985 259.511 382.031 258.717 380.052 257.895ZM369.697 249.466C372.906 252.078 376.118 254.664 379.376 257.332C381.355 258.155 383.309 258.949 385.285 259.797C382.07 257.237 378.906 254.708 375.74 252.205C373.694 251.245 371.718 250.397 369.697 249.466ZM359.559 241.293C362.672 243.791 365.782 246.315 368.945 248.844C370.943 249.746 372.916 250.621 374.938 251.552C371.847 249.108 368.783 246.667 365.741 244.28C363.646 243.263 361.627 242.307 359.559 241.293ZM349.589 233.345C352.605 235.729 355.642 238.168 358.706 240.609C360.723 241.591 362.718 242.52 364.732 243.528C361.74 241.172 358.744 238.868 355.775 236.567C353.69 235.447 351.652 234.41 349.589 233.345ZM339.633 225.529C342.6 227.856 345.567 230.183 348.585 232.542C350.621 233.604 352.659 234.641 354.695 235.704C351.774 233.459 348.904 231.246 346.032 229.058C343.872 227.879 341.742 226.677 339.633 225.529ZM330.049 218.062C332.817 220.213 335.611 222.367 338.427 224.575C340.512 225.695 342.615 226.894 344.697 228.04C341.927 225.914 339.154 223.815 336.406 221.744C334.251 220.513 332.153 219.262 330.049 218.062ZM320.81 210.943C323.354 212.889 325.946 214.893 328.539 216.896C330.564 218.062 332.638 219.284 334.715 220.481C332.069 218.472 329.393 216.487 326.769 214.532C324.775 213.318 322.803 212.157 320.81 210.943ZM311.485 203.866C313.98 205.756 316.503 207.648 319.022 209.566C320.941 210.721 322.859 211.876 324.777 213.031C322.327 211.224 319.929 209.449 317.504 207.67C315.486 206.427 313.473 205.133 311.485 203.866ZM303.033 197.554C305.154 199.12 307.245 200.709 309.391 202.303C311.099 203.385 312.837 204.444 314.543 205.552C312.344 203.952 310.169 202.381 307.997 200.784C306.345 199.682 304.688 198.631 303.033 197.554ZM295.488 191.932C296.952 193.015 298.416 194.099 299.88 195.182C301.18 196.015 302.501 196.902 303.825 197.764C302.485 196.797 301.12 195.801 299.804 194.862C298.356 193.885 296.908 192.907 295.488 191.932ZM383.861 264.003C387.287 266.897 390.736 269.819 394.21 272.77C396.126 273.404 398.04 274.064 399.956 274.698C396.552 271.858 393.148 269.019 389.79 266.262C387.834 265.493 385.85 264.722 383.861 264.003ZM373.206 255.049C376.534 257.829 379.911 260.666 383.285 263.529C385.247 264.246 387.231 265.017 389.217 265.762C385.886 263.008 382.555 260.254 379.27 257.582C377.24 256.728 375.213 255.849 373.206 255.049ZM362.639 246.287C365.946 249.013 369.228 251.71 372.556 254.49C374.564 255.289 376.591 256.169 378.597 256.994C375.312 254.323 372.078 251.682 368.815 249.065C366.763 248.157 364.69 247.195 362.639 246.287ZM352.264 237.778C355.447 240.387 358.654 243.025 361.885 245.691C363.91 246.596 365.985 247.533 368.034 248.466C364.849 245.883 361.685 243.354 358.548 240.827C356.481 239.814 354.362 238.769 352.264 237.778ZM342.06 229.468C345.172 231.966 348.304 234.544 351.462 237.125C353.532 238.113 355.627 239.13 357.722 240.146C354.634 237.676 351.545 235.207 348.479 232.792C346.314 231.664 344.176 230.539 342.06 229.468ZM332.046 221.412C335.059 223.822 338.096 226.26 341.157 228.727C343.25 229.77 345.337 230.863 347.453 231.934C344.386 229.519 341.344 227.132 338.326 224.773C336.191 223.623 334.131 222.532 332.046 221.412ZM322.147 213.575C325.087 215.9 328.027 218.225 331.015 220.606C333.048 221.695 335.057 222.754 337.142 223.874C334.223 221.604 331.329 219.362 328.46 217.148C326.305 215.918 324.226 214.747 322.147 213.575ZM312.468 205.969C315.26 208.149 318.073 210.383 320.914 212.619C322.942 213.759 324.945 214.871 326.971 216.036C324.252 213.942 321.56 211.851 318.862 209.811C316.742 208.505 314.593 207.223 312.468 205.969ZM303.083 198.679C305.7 200.711 308.341 202.771 311.009 204.834C313.005 206.023 315.03 207.189 317.051 208.406C314.456 206.428 311.86 204.451 309.26 202.524C307.194 201.224 305.128 199.924 303.083 198.679ZM293.865 191.613C296.334 193.5 298.781 195.333 301.274 197.248C303.24 198.46 305.231 199.701 307.198 200.913C304.7 199.049 302.226 197.213 299.752 195.378C297.788 194.14 295.827 192.877 293.865 191.613ZM285.397 185.195C287.464 186.756 289.556 188.345 291.647 189.934C293.305 190.984 294.938 192.007 296.619 193.086C294.523 191.549 292.453 190.014 290.407 188.508C288.73 187.377 287.076 186.3 285.397 185.195ZM277.679 179.399C279.116 180.48 280.605 181.592 282.069 182.676C283.366 183.535 284.688 184.422 285.985 185.28C284.62 184.285 283.255 183.289 281.915 182.322C280.494 181.347 279.073 180.372 277.679 179.399ZM377.371 261.662C380.869 264.641 384.389 267.675 387.933 270.736C389.825 271.342 391.69 271.945 393.608 272.553C390.11 269.574 386.634 266.649 383.184 263.727C381.222 263.01 379.309 262.35 377.371 261.662ZM366.531 252.378C369.93 255.269 373.404 258.219 376.848 261.193C378.759 261.879 380.673 262.539 382.608 263.253C379.207 260.387 375.805 257.522 372.453 254.714C370.445 253.914 368.512 253.174 366.531 252.378ZM355.779 243.31C359.131 246.119 362.532 248.984 365.931 251.875C367.888 252.643 369.82 253.383 371.801 254.18C368.449 251.372 365.115 248.643 361.811 245.892C359.784 245.012 357.779 244.187 355.779 243.31ZM345.193 234.468C348.497 237.219 351.801 239.971 355.154 242.779C357.13 243.628 359.081 244.447 361.082 245.324C357.799 242.627 354.565 239.987 351.358 237.349C349.261 236.358 347.242 235.402 345.193 234.468ZM334.775 225.85C337.982 228.488 341.211 231.18 344.466 233.874C346.488 234.805 348.486 235.708 350.532 236.668C347.346 234.084 344.188 231.504 341.051 228.977C338.937 227.881 336.843 226.864 334.775 225.85ZM324.424 217.37C327.559 219.922 330.715 222.529 333.897 225.138C335.965 226.152 338.03 227.191 340.122 228.233C337.037 225.738 333.948 223.268 330.885 220.827C328.752 219.651 326.562 218.495 324.424 217.37ZM314.29 209.171C317.351 211.638 320.412 214.105 323.522 216.629C325.609 217.723 327.747 218.848 329.859 219.97C326.822 217.531 323.803 215.173 320.788 212.789C318.631 211.584 316.45 210.351 314.29 209.171ZM304.425 201.26C307.338 203.582 310.275 205.932 313.237 208.311C315.319 209.456 317.449 210.659 319.555 211.832C316.639 209.536 313.748 207.269 310.881 205.03C308.729 203.773 306.579 202.491 304.425 201.26ZM294.878 193.693C297.594 195.813 300.33 198.013 303.092 200.216C305.195 201.415 307.321 202.669 309.419 203.92C306.651 201.769 303.86 199.59 301.141 197.495C299.047 196.193 296.976 194.944 294.878 193.693ZM285.196 186.113C287.889 188.204 290.605 190.324 293.319 192.47C295.315 193.659 297.284 194.845 299.304 196.062C296.712 194.059 294.114 192.107 291.546 190.132C289.429 188.801 287.29 187.415 285.196 186.113ZM276.135 179.115C278.552 180.971 280.97 182.826 283.409 184.736C285.376 185.948 287.337 187.212 289.325 188.478C286.83 186.588 284.383 184.756 281.912 182.895C279.98 181.608 278.072 180.35 276.135 179.115ZM267.752 172.653C269.741 174.18 271.781 175.738 273.822 177.296C275.477 178.372 277.134 179.423 278.813 180.528C276.77 178.996 274.727 177.464 272.706 175.986C271.029 174.856 269.401 173.782 267.752 172.653ZM259.808 166.678C261.272 167.762 262.731 168.897 264.196 169.981C265.441 170.808 266.736 171.693 268.006 172.549C266.617 171.525 265.204 170.472 263.812 169.474C262.469 168.533 261.151 167.62 259.808 166.678ZM370.905 259.35C374.471 262.466 378.063 265.584 381.705 268.76C383.599 269.34 385.464 269.943 387.356 270.548C383.785 267.484 380.267 264.425 376.745 261.417C374.78 260.726 372.845 260.012 370.905 259.35ZM359.852 249.757C363.348 252.762 366.865 255.822 370.409 258.883C372.349 259.546 374.284 260.26 376.222 260.948C372.751 257.972 369.253 254.993 365.827 252.099C363.817 251.325 361.809 250.526 359.852 249.757ZM348.937 240.413C352.333 243.33 355.807 246.281 359.249 249.281C361.235 250.026 363.214 250.848 365.224 251.622C361.799 248.728 358.4 245.837 355.023 243C352.996 242.121 350.969 241.241 348.937 240.413ZM338.165 231.266C341.54 234.129 344.916 236.966 348.312 239.882C350.318 240.708 352.345 241.587 354.372 242.467C350.995 239.63 347.664 236.876 344.336 234.096C342.263 233.134 340.217 232.174 338.165 231.266ZM327.512 222.287C330.816 225.038 334.142 227.844 337.465 230.675C339.49 231.581 341.562 232.543 343.611 233.477C340.331 230.754 337.052 228.031 333.794 225.362C331.701 224.32 329.582 223.275 327.512 222.287ZM317.126 213.62C320.306 216.255 323.535 218.947 326.734 221.662C328.804 222.65 330.845 223.661 332.94 224.678C329.76 222.043 326.55 219.431 323.416 216.879C321.307 215.731 319.215 214.688 317.126 213.62ZM306.754 205.086C309.885 207.664 313.044 210.244 316.224 212.879C318.286 213.945 320.379 214.987 322.466 216.081C319.331 213.528 316.219 211.03 313.106 208.532C311 207.359 308.889 206.236 306.754 205.086ZM296.627 196.81C299.661 199.274 302.696 201.738 305.779 204.259C307.863 205.379 309.972 206.527 312.08 207.675C309.019 205.208 305.979 202.795 302.967 200.385C300.836 199.183 298.757 198.012 296.627 196.81ZM286.694 188.762C289.605 191.109 292.566 193.488 295.525 195.893C297.605 197.064 299.66 198.206 301.736 199.403C298.872 197.138 296.034 194.876 293.22 192.642C291.017 191.355 288.843 190.044 286.694 188.762ZM276.999 181.05C279.761 183.252 282.575 185.486 285.386 187.746C287.46 188.968 289.534 190.191 291.632 191.442C288.84 189.263 286.051 187.057 283.308 184.935C281.19 183.603 279.095 182.327 276.999 181.05ZM267.323 173.418C270.012 175.535 272.729 177.655 275.443 179.801C277.487 181.046 279.529 182.318 281.571 183.589C278.903 181.526 276.284 179.52 273.665 177.514C271.552 176.131 269.413 174.746 267.323 173.418ZM258.344 166.402C260.735 168.255 263.123 170.134 265.538 172.016C267.475 173.251 269.412 174.486 271.347 175.746C268.902 173.888 266.485 172.032 264.065 170.202C262.135 168.89 260.252 167.66 258.344 166.402ZM249.735 159.762C251.775 161.32 253.813 162.903 255.878 164.489C257.533 165.566 259.161 166.64 260.84 167.745C258.848 166.244 256.858 164.718 254.888 163.271C253.163 162.083 251.462 160.924 249.735 159.762ZM241.949 153.829C243.435 154.967 244.9 156.05 246.386 157.188C247.581 157.984 248.797 158.835 249.989 159.657C248.525 158.573 247.036 157.461 245.572 156.378C244.382 155.53 243.166 154.679 241.949 153.829ZM364.536 257.151C368.175 260.352 371.811 263.58 375.498 266.838C377.368 267.389 379.235 267.967 381.127 268.572C377.488 265.371 373.869 262.249 370.279 259.105C368.338 258.442 366.449 257.811 364.536 257.151ZM353.294 247.28C356.86 250.396 360.45 253.54 364.062 256.739C365.951 257.37 367.867 258.004 369.78 258.664C366.212 255.574 362.668 252.512 359.175 249.481C357.189 248.736 355.253 248.022 353.294 247.28ZM342.22 237.633C345.688 240.635 349.227 243.749 352.769 246.836C354.704 247.551 356.639 248.265 358.572 249.005C355.103 246.002 351.631 243.026 348.209 240.106C346.206 239.255 344.225 238.459 342.22 237.633ZM331.234 228.178C334.679 231.152 338.15 234.128 341.643 237.159C343.624 237.956 345.579 238.75 347.584 239.575C344.137 236.627 340.76 233.79 337.361 230.899C335.313 229.966 333.261 229.058 331.234 228.178ZM320.419 218.922C323.793 221.785 327.192 224.676 330.585 227.619C332.586 228.495 334.612 229.375 336.637 230.28C333.26 227.443 329.934 224.638 326.606 221.858C324.562 220.872 322.492 219.884 320.419 218.922ZM309.771 209.891C313.048 212.64 316.371 215.472 319.695 218.303C321.741 219.263 323.811 220.251 325.882 221.239C322.604 218.49 319.351 215.769 316.12 213.103C314.006 212.007 311.863 210.934 309.771 209.891ZM299.288 201.111C302.49 203.8 305.745 206.495 308.996 209.241C311.061 210.281 313.153 211.323 315.245 212.365C312.041 209.702 308.831 207.09 305.675 204.483C303.513 203.33 301.402 202.208 299.288 201.111ZM288.899 192.471C292.055 195.077 295.211 197.684 298.44 200.376C300.526 201.469 302.613 202.563 304.698 203.683C301.564 201.13 298.48 198.609 295.395 196.114C293.213 194.881 291.029 193.673 288.899 192.471ZM278.751 184.141C281.785 186.605 284.814 189.12 287.895 191.667C290.004 192.815 292.107 194.015 294.24 195.191C291.23 192.756 288.219 190.32 285.231 187.938C283.081 186.656 280.903 185.397 278.751 184.141ZM268.871 176.098C271.731 178.414 274.639 180.788 277.547 183.161C279.675 184.389 281.8 185.643 283.952 186.899C281.066 184.58 278.152 182.258 275.315 179.996C273.168 178.688 271.021 177.38 268.871 176.098ZM259.006 168.187C261.844 170.449 264.682 172.711 267.566 175.056C269.613 176.276 271.66 177.496 273.729 178.77C270.94 176.565 268.175 174.388 265.407 172.237C263.268 170.851 261.124 169.518 259.006 168.187ZM249.438 160.565C252.076 162.651 254.739 164.766 257.402 166.881C259.444 168.152 261.534 169.481 263.627 170.783C260.986 168.723 258.369 166.691 255.777 164.687C253.638 163.302 251.526 161.919 249.438 160.565ZM240.491 153.501C242.831 155.323 245.192 157.199 247.553 159.075C249.463 160.307 251.374 161.54 253.308 162.801C250.942 160.976 248.576 159.151 246.258 157.384C244.328 156.071 242.396 154.785 240.491 153.501ZM231.658 146.656C233.747 148.271 235.836 149.885 237.95 151.528C239.578 152.602 241.181 153.648 242.807 154.748C240.739 153.187 238.674 151.601 236.605 150.066C234.957 148.912 233.305 147.81 231.658 146.656ZM224.104 140.85C225.539 141.957 226.95 143.035 228.411 144.145C229.604 144.967 230.823 145.791 232.039 146.642C230.451 145.442 228.86 144.268 227.269 143.093C226.206 142.336 225.167 141.607 224.104 140.85ZM358.21 255.061C361.919 258.373 365.601 261.683 369.386 265.055C371.229 265.604 373.101 266.13 374.969 266.707C371.257 263.42 367.621 260.193 363.956 256.989C362.015 256.326 360.102 255.666 358.21 255.061ZM346.782 244.884C350.418 248.112 354.054 251.339 357.739 254.623C359.628 255.254 361.544 255.888 363.46 256.523C359.821 253.321 356.231 250.177 352.641 247.032C350.706 246.318 348.744 245.601 346.782 244.884ZM335.572 234.964C339.111 238.078 342.699 241.248 346.284 244.444C348.221 245.132 350.181 245.875 352.143 246.592C348.604 243.478 345.035 240.388 341.542 237.357C339.534 236.558 337.553 235.761 335.572 234.964ZM324.452 225.235C327.942 228.292 331.46 231.351 334.999 234.464C336.982 235.235 338.961 236.058 340.942 236.855C337.422 233.821 333.953 230.819 330.482 227.843C328.455 226.963 326.452 226.112 324.452 225.235ZM313.396 215.669C316.841 218.643 320.31 221.645 323.827 224.704C325.83 225.555 327.832 226.406 329.857 227.311C326.412 224.338 322.987 221.444 319.564 218.524C317.518 217.565 315.445 216.603 313.396 215.669ZM302.586 206.361C305.958 209.25 309.354 212.167 312.747 215.109C314.769 216.04 316.794 216.946 318.84 217.905C315.49 215.071 312.167 212.24 308.865 209.462C306.776 208.394 304.654 207.375 302.586 206.361ZM291.868 197.219C295.167 200.022 298.49 202.854 301.811 205.711C303.879 206.725 305.973 207.741 308.065 208.784C304.791 206.009 301.511 203.286 298.285 200.568C296.144 199.469 294.009 198.319 291.868 197.219ZM281.339 188.357C284.565 191.074 287.767 193.763 291.044 196.512C293.16 197.583 295.296 198.734 297.436 199.833C294.181 197.138 291.001 194.503 287.796 191.84C285.634 190.686 283.474 189.507 281.339 188.357ZM271.055 179.753C274.16 182.328 277.286 184.958 280.439 187.59C282.548 188.738 284.681 189.914 286.843 191.068C283.687 188.461 280.58 185.912 277.473 183.362C275.291 182.129 273.158 180.952 271.055 179.753ZM260.839 171.286C263.871 173.775 266.924 176.32 270.005 178.867C272.084 180.038 274.163 181.209 276.267 182.408C273.307 180.004 270.351 177.573 267.44 175.226C265.24 173.912 263.015 172.57 260.839 171.286ZM250.86 163.155C253.795 165.531 256.7 167.93 259.684 170.363C261.809 171.617 263.931 172.896 266.083 174.153C263.122 171.774 260.184 169.424 257.274 167.076C255.102 165.74 252.98 164.46 250.86 163.155ZM241.002 155.166C243.813 157.426 246.649 159.714 249.508 162.03C251.58 163.279 253.624 164.524 255.691 165.824C252.904 163.593 250.163 161.445 247.398 159.268C245.286 157.885 243.144 156.526 241.002 155.166ZM231.514 147.553C234.102 149.608 236.711 151.717 239.347 153.829C241.413 155.129 243.501 156.483 245.565 157.809C242.977 155.754 240.387 153.725 237.846 151.752C235.709 150.341 233.575 148.904 231.514 147.553ZM222.317 140.281C224.705 142.16 227.142 144.096 229.554 146.003C231.438 147.233 233.346 148.491 235.28 149.752C232.941 147.93 230.601 146.108 228.283 144.34C226.279 142.968 224.274 141.596 222.317 140.281ZM213.592 133.447C215.705 135.09 217.819 136.733 219.983 138.408C221.584 139.479 223.161 140.522 224.76 141.619C222.67 140.004 220.576 138.441 218.484 136.852C216.837 135.698 215.215 134.573 213.592 133.447ZM206.245 127.74C207.553 128.756 208.913 129.803 210.245 130.848C211.513 131.729 212.807 132.614 214.072 133.521C212.309 132.173 210.565 130.906 208.799 129.583C207.94 128.951 207.106 128.347 206.245 127.74ZM351.933 253.027C355.688 256.423 359.416 259.815 363.22 263.268C365.065 263.791 366.935 264.342 368.805 264.893C365.024 261.495 361.315 258.183 357.606 254.87C355.717 254.239 353.825 253.633 351.933 253.027ZM340.367 242.603C344.049 245.913 347.756 249.251 351.486 252.618C353.378 253.224 355.243 253.827 357.134 254.432C353.45 251.148 349.789 247.893 346.126 244.663C344.218 243.951 342.307 243.265 340.367 242.603ZM328.971 232.378C332.58 235.602 336.238 238.884 339.896 242.165C341.809 242.825 343.72 243.511 345.658 244.199C342.046 241 338.461 237.804 334.895 234.688C332.911 233.917 330.928 233.146 328.971 232.378ZM317.635 222.367C321.195 225.534 324.81 228.708 328.419 231.932C330.378 232.675 332.335 233.443 334.292 234.211C330.726 231.095 327.211 228.01 323.694 224.951C321.694 224.074 319.64 223.192 317.635 222.367ZM306.495 212.558C310.01 215.643 313.524 218.728 317.088 221.87C319.093 222.695 321.096 223.546 323.098 224.397C319.581 221.338 316.112 218.336 312.617 215.331C310.568 214.397 308.519 213.463 306.495 212.558ZM295.523 202.974C298.94 205.945 302.382 208.945 305.846 211.998C307.87 212.904 309.919 213.837 311.968 214.771C308.523 211.797 305.103 208.852 301.707 205.935C299.639 204.921 297.566 203.959 295.523 202.974ZM284.691 193.612C288.036 196.498 291.429 199.441 294.849 202.386C296.895 203.345 298.917 204.276 300.958 205.288C297.611 202.428 294.239 199.539 290.94 196.736C288.824 195.665 286.783 194.654 284.691 193.612ZM273.948 184.442C277.272 187.273 280.57 190.076 283.94 192.99C286.005 194.03 288.046 195.041 290.135 196.109C286.809 193.303 283.559 190.557 280.282 187.808C278.149 186.632 276.062 185.538 273.948 184.442ZM263.378 175.445C266.604 178.162 269.852 180.934 273.127 183.709C275.214 184.802 277.276 185.868 279.361 186.987C276.183 184.327 273.006 181.666 269.877 179.062C267.693 177.854 265.535 176.65 263.378 175.445ZM253.1 166.789C256.177 169.362 259.328 172.02 262.479 174.678C264.585 175.852 266.718 177.028 268.848 178.23C265.743 175.655 262.639 173.08 259.556 170.558C257.379 169.274 255.227 168.017 253.1 166.789ZM242.808 158.262C245.864 160.781 248.918 163.325 251.996 165.898C254.123 167.126 256.251 168.354 258.403 169.61C255.371 167.12 252.388 164.687 249.404 162.254C247.182 160.886 244.984 159.547 242.808 158.262ZM232.813 150.026C235.745 152.428 238.677 154.83 241.658 157.288C243.783 158.542 245.906 159.822 248.053 161.13C245.067 158.722 242.132 156.346 239.194 153.996C237.026 152.634 234.93 151.357 232.813 150.026ZM223.036 142.045C225.793 144.299 228.601 146.585 231.41 148.87C233.479 150.144 235.547 151.419 237.611 152.744C234.849 150.542 232.113 148.342 229.402 146.17C227.263 144.785 225.151 143.402 223.036 142.045ZM213.348 134.256C215.957 136.365 218.618 138.505 221.278 140.646C223.317 141.943 225.403 143.323 227.466 144.649C224.903 142.622 222.343 140.57 219.828 138.6C217.67 137.135 215.485 135.667 213.348 134.256ZM204.105 126.901C206.566 128.866 209.032 130.778 211.517 132.771C213.425 134.029 215.357 135.316 217.287 136.628C214.872 134.747 212.481 132.893 210.091 131.04C208.088 129.643 206.086 128.245 204.105 126.901ZM195.511 120.106C197.547 121.716 199.609 123.328 201.696 124.968C203.372 126.099 205.046 127.256 206.747 128.415C204.658 126.8 202.59 125.24 200.526 123.654C198.827 122.469 197.156 121.286 195.511 120.106ZM187.688 114.013C189.147 115.149 190.606 116.284 192.065 117.419C193.207 118.21 194.348 119.001 195.513 119.82C194.178 118.802 192.842 117.783 191.505 116.79C190.242 115.857 188.953 114.921 187.688 114.013ZM345.753 251.108C349.554 254.586 353.355 258.064 357.202 261.625C359.023 262.119 360.845 262.614 362.69 263.137C358.89 259.659 355.108 256.261 351.353 252.865C349.515 252.265 347.623 251.659 345.753 251.108ZM334.052 240.41C337.807 243.805 341.559 247.226 345.333 250.701C347.2 251.279 349.068 251.856 350.96 252.461C347.205 249.066 343.498 245.728 339.789 242.415C337.852 241.727 335.938 241.067 334.052 240.41ZM322.488 229.959C326.144 233.267 329.847 236.631 333.578 239.998C335.491 240.658 337.38 241.289 339.318 241.977C335.636 238.667 331.978 235.386 328.342 232.159C326.358 231.388 324.423 230.674 322.488 229.959ZM311.068 219.706C314.677 222.93 318.308 226.209 321.99 229.519C323.925 230.233 325.858 230.973 327.817 231.716C324.181 228.488 320.569 225.29 316.981 222.119C314.979 221.268 313.022 220.5 311.068 219.706ZM299.715 209.589C303.302 212.759 306.887 215.956 310.521 219.209C312.475 220.003 314.432 220.771 316.437 221.596C312.85 218.426 309.311 215.313 305.769 212.225C303.718 211.317 301.715 210.466 299.715 209.589ZM288.478 199.666C291.993 202.751 295.556 205.893 299.117 209.061C301.12 209.912 303.096 210.76 305.096 211.637C301.605 208.58 298.139 205.552 294.721 202.581C292.648 201.619 290.551 200.628 288.478 199.666ZM277.535 190.059C280.953 193.03 284.392 196.056 287.856 199.109C289.905 200.043 292.002 201.034 294.045 202.019C290.628 199.048 287.21 196.077 283.838 193.189C281.722 192.118 279.603 191.073 277.535 190.059ZM266.606 180.584C270 183.526 273.396 186.443 276.862 189.471C278.93 190.485 280.998 191.499 283.09 192.541C279.694 189.624 276.371 186.793 273.023 183.933C270.858 182.805 268.72 181.68 266.606 180.584ZM255.896 171.364C259.192 174.193 262.513 177.05 265.858 179.936C267.947 181.004 270.061 182.1 272.172 183.223C268.873 180.42 265.599 177.645 262.321 174.896C260.164 173.691 258.031 172.515 255.896 171.364ZM245.428 162.429C248.603 165.116 251.8 167.857 255.021 170.626C257.132 171.748 259.289 172.953 261.425 174.104C258.225 171.389 255.023 168.7 251.87 166.067C249.689 164.834 247.558 163.632 245.428 162.429ZM234.926 153.569C238.076 156.227 241.254 158.888 244.453 161.603C246.559 162.777 248.639 163.948 250.769 165.15C247.667 162.549 244.586 160.002 241.533 157.458C239.303 156.168 237.102 154.854 234.926 153.569ZM224.715 145.051C227.744 147.567 230.773 150.082 233.824 152.652C235.976 153.909 238.177 155.222 240.351 156.533C237.295 154.014 234.287 151.553 231.255 149.063C229.084 147.726 226.888 146.361 224.715 145.051ZM214.776 136.794C217.657 139.164 220.587 141.592 223.514 144.046C225.609 145.322 227.732 146.602 229.849 147.933C226.917 145.531 224.009 143.158 221.099 140.81C218.984 139.453 216.893 138.125 214.776 136.794ZM204.926 128.728C207.71 130.985 210.516 133.296 213.322 135.607C215.388 136.907 217.43 138.178 219.521 139.507C216.785 137.307 214.052 135.081 211.392 132.941C209.202 131.524 207.063 130.139 204.926 128.728ZM195.217 120.884C197.877 123.025 200.537 125.165 203.246 127.362C205.283 128.685 207.344 130.037 209.378 131.386C206.742 129.274 204.128 127.216 201.514 125.158C199.434 123.727 197.326 122.293 195.217 120.884ZM185.955 113.45C188.34 115.354 190.75 117.287 193.184 119.249C195.14 120.564 197.145 121.936 199.128 123.254C196.689 121.344 194.301 119.465 191.911 117.612C189.935 116.217 187.935 114.793 185.955 113.45ZM177.264 106.541C179.299 108.15 181.359 109.788 183.445 111.429C185.119 112.585 186.82 113.744 188.518 114.93C186.556 113.406 184.617 111.91 182.706 110.417C180.881 109.142 179.035 107.811 177.264 106.541ZM169.467 100.451C170.978 101.617 172.461 102.781 173.969 103.973C174.956 104.67 175.92 105.339 176.907 106.037C175.774 105.169 174.617 104.272 173.483 103.403C172.145 102.411 170.808 101.418 169.467 100.451ZM-90.9688 295.82C-89.7654 295.445 -88.5058 295.05 -87.2195 294.658C-76.6814 251.348 -61.4729 194.134 -24.7877 155.885C21.8827 107.256 103.276 89.3829 254.02 170.057C250.772 167.285 247.525 164.513 244.325 161.799C95.8297 78.433 15.5663 91.2385 -29.7049 137.533C-69.8135 178.565 -82.5058 245.872 -90.9688 295.82ZM-87.3015 294.937C-88.588 295.329 -89.8206 295.726 -91.024 296.101C-91.2833 297.611 -91.5427 299.121 -91.7727 300.608C-90.6717 300.171 -89.5116 299.688 -88.3249 299.208C-87.9953 297.809 -87.6631 296.384 -87.3015 294.937ZM489.647 311.337C490.663 311.751 491.679 312.165 492.698 312.553C490.808 311.662 488.915 310.795 487.049 309.932C487.899 310.382 488.773 310.859 489.647 311.337ZM482.61 308.499C484.228 309.129 485.868 309.814 487.484 310.47C485.55 309.47 483.667 308.501 481.734 307.5C480.126 306.767 478.521 306.008 476.937 305.303C478.815 306.323 480.714 307.398 482.61 308.499ZM476.031 305.967C477.727 306.631 479.425 307.27 481.148 307.936C478.916 306.672 476.707 305.436 474.499 304.2C472.786 303.43 471.071 302.686 469.356 301.941C471.583 303.257 473.782 304.597 476.031 305.967ZM469.214 303.359C471.072 304.039 472.923 304.771 474.775 305.503C472.322 304.008 469.917 302.57 467.485 301.13C465.587 300.315 463.694 299.449 461.796 298.634C464.272 300.183 466.717 301.756 469.214 303.359ZM462.702 300.964C464.508 301.613 466.314 302.262 468.118 302.937C465.519 301.271 462.968 299.663 460.391 298.051C458.517 297.265 456.643 296.479 454.796 295.696C457.442 297.444 460.06 299.19 462.702 300.964ZM456.005 298.524C457.916 299.21 459.851 299.924 461.789 300.612C459.046 298.75 456.323 296.968 453.603 295.16C451.651 294.34 449.7 293.52 447.745 292.726C450.482 294.64 453.244 296.582 456.005 298.524ZM449.558 296.292C451.418 296.946 453.253 297.572 455.113 298.227C452.3 296.253 449.488 294.28 446.697 292.361C444.77 291.569 442.837 290.83 440.908 290.064C443.768 292.094 446.654 294.153 449.558 296.292ZM443.033 294.025C444.949 294.659 446.86 295.345 448.773 296.005C445.815 293.861 442.882 291.745 439.972 289.658C437.991 288.861 436.01 288.064 434.026 287.293C437.006 289.492 440.032 291.773 443.033 294.025ZM436.656 291.904C438.519 292.533 440.41 293.138 442.273 293.767C439.22 291.483 436.194 289.202 433.166 286.947C431.207 286.204 429.299 285.493 427.366 284.753C430.438 287.117 433.536 289.483 436.656 291.904ZM430.301 289.837C432.193 290.443 434.085 291.048 435.974 291.68C432.803 289.228 429.677 286.859 426.581 284.466C424.622 283.724 422.638 282.953 420.676 282.236C423.843 284.739 427.06 287.274 430.301 289.837ZM423.944 287.796C425.838 288.375 427.727 289.007 429.619 289.612C426.353 287.021 423.112 284.458 419.892 281.949C417.984 281.238 416.07 280.578 414.159 279.892C417.398 282.481 420.656 285.15 423.944 287.796ZM417.681 285.894C419.548 286.471 421.418 287.022 423.283 287.625C419.998 284.954 416.686 282.28 413.423 279.663C411.459 278.972 409.497 278.255 407.559 277.566C410.919 280.298 414.301 283.083 417.681 285.894ZM411.445 283.995C413.315 284.546 415.209 285.126 417.076 285.703C413.673 282.864 410.264 280.076 406.882 277.29C404.968 276.631 403.052 275.997 401.139 275.337C404.54 278.202 407.968 281.07 411.445 283.995ZM405.33 282.238C407.175 282.761 409.021 283.284 410.864 283.833C407.388 280.908 403.935 278.011 400.508 275.143C398.594 274.484 396.651 273.847 394.735 273.213C398.236 276.166 401.759 279.174 405.33 282.238ZM399.164 280.45C401.009 280.973 402.906 281.527 404.752 282.05C401.181 278.986 397.632 275.975 394.109 272.968C392.193 272.334 390.302 271.728 388.41 271.122C391.978 274.213 395.547 277.303 399.164 280.45ZM393.119 278.805C394.94 279.299 396.765 279.768 398.61 280.291C394.993 277.144 391.401 274.025 387.829 270.96C385.938 270.355 384.046 269.749 382.152 269.169C385.766 272.342 389.432 275.546 393.119 278.805ZM387.045 277.182C388.893 277.679 390.742 278.177 392.59 278.674C388.903 275.415 385.24 272.185 381.601 268.984C379.707 268.404 377.815 267.798 375.945 267.247C379.605 270.503 383.312 273.841 387.045 277.182ZM381.046 275.619C382.87 276.088 384.67 276.528 386.491 277.023C382.758 273.682 379.025 270.341 375.365 267.085C373.495 266.534 371.652 265.985 369.782 265.433C373.515 268.775 377.294 272.198 381.046 275.619ZM375.096 274.114C376.923 274.556 378.72 275.022 380.544 275.491C376.765 272.067 372.988 268.618 369.258 265.251C367.388 264.7 365.518 264.148 363.645 263.623C367.422 267.072 371.271 270.607 375.096 274.114ZM369.165 272.688C370.965 273.128 372.765 273.568 374.591 274.011C370.742 270.476 366.89 266.967 363.116 263.492C361.27 262.969 359.449 262.474 357.6 261.977C361.426 265.483 365.297 269.073 369.165 272.688ZM-48.1326 282.84C32.5473 259.897 183.114 228.135 368.689 272.562C364.818 268.973 360.923 265.355 357.101 261.823C167.504 209.887 28.036 252.677 -48.1326 282.84ZM-53.4664 284.39C-52.4613 284.1 -51.483 283.807 -50.4779 283.517C25.1513 253.326 165.378 209.18 356.702 261.471C352.828 257.907 349.03 254.403 345.229 250.925C147.272 190.135 16.8832 246.798 -53.4664 284.39ZM-57.9905 285.708C-56.8729 285.377 -55.7553 285.046 -54.6376 284.715C15.4383 247.148 146.046 189.648 344.78 250.542C340.979 247.064 337.2 243.64 333.447 240.219C127.428 170.292 6.64731 240.698 -57.9905 285.708ZM-62.2923 286.97C-61.1184 286.619 -59.9446 286.268 -58.7438 285.919C5.75727 240.921 126.544 169.917 333.003 239.784C329.275 236.391 325.544 233.025 321.889 229.717C107.573 150.291 -3.3316 234.467 -62.2923 286.97ZM-66.4866 288.243C-65.3128 287.892 -64.0826 287.52 -62.8524 287.149C-4.00419 234.687 106.847 149.958 321.364 229.274C317.682 225.964 314.024 222.683 310.417 219.433C87.6046 130.071 -13.2542 228.217 -66.4866 288.243ZM-70.6543 289.519C-69.4509 289.145 -68.2207 288.773 -66.9637 288.404C-13.8143 228.395 86.9515 129.823 309.841 218.958C306.181 215.703 302.596 212.507 298.984 209.308C107.21 126.797 12.0811 189.588 -41.8794 252.015C-53.0693 264.955 -62.4964 277.89 -70.6543 289.519ZM-74.7654 290.774C-73.5621 290.4 -72.3052 290.031 -71.0455 289.636C-62.8531 277.932 -53.3622 264.9 -42.0518 251.842C11.9086 189.414 106.954 126.642 298.44 208.785C294.855 205.589 291.291 202.447 287.752 199.333C114.281 119.798 24.1927 163.358 -28.1732 222.039C-48.5028 244.766 -63.1205 269.757 -74.7654 290.774ZM-78.8498 292.032C-77.6197 291.661 -76.3869 291.263 -75.1274 290.868C-63.4773 269.799 -48.7929 244.685 -28.4262 221.858C23.9397 163.176 113.945 119.634 287.076 198.771C283.613 195.717 280.122 192.661 276.707 189.664C114.031 110.635 27.6756 142.618 -22.6533 197.467C-49.6528 226.974 -66.3283 263.057 -78.8498 292.032ZM-82.91 293.319C-81.7066 292.944 -80.4471 292.55 -79.1606 292.157C-66.6314 263.105 -49.9455 226.918 -22.8042 197.348C27.4953 142.522 113.746 110.502 276.058 189.104C272.592 186.076 269.172 183.131 265.751 180.186C110.031 100.472 26.4863 124.405 -21.9083 175.907C-54.2732 210.266 -70.9263 256.974 -82.91 293.319ZM-83.8883 293.611L-83.2155 293.392C-71.2293 257.022 -54.5635 210.185 -22.1294 175.677C26.2358 124.197 109.676 100.228 264.981 179.484C261.585 176.567 258.24 173.681 254.893 170.821C103.688 89.6063 22.1114 107.409 -24.5884 156.061C-61.1802 194.189 -76.4052 251.298 -86.938 294.556C-85.9598 294.264 -84.9253 293.95 -83.8883 293.611ZM-83.3001 293.696L-83.8041 293.854C-84.8948 294.188 -85.9856 294.521 -87.0227 294.86C-87.3818 296.282 -87.7138 297.707 -88.0436 299.106C-86.9399 298.644 -85.7826 298.186 -84.5932 297.68C-84.1639 296.37 -83.732 295.033 -83.3001 293.696ZM-79.2964 292.43C-80.5828 292.822 -81.7888 293.222 -82.992 293.597C-83.4239 294.934 -83.8531 296.244 -84.2799 297.53C-83.1762 297.067 -82.0162 296.584 -80.8562 296.101C-80.3567 294.902 -79.8278 293.679 -79.2964 292.43ZM-75.2682 291.193C-76.5278 291.587 -77.7579 291.959 -78.9612 292.334C-79.4901 293.556 -80.0166 294.753 -80.5162 295.953C-79.4125 295.491 -78.2793 295.005 -77.1195 294.522C-76.5228 293.436 -75.8968 292.327 -75.2682 291.193ZM-71.2668 289.952C-72.497 290.324 -73.7298 290.722 -74.9306 291.07C-75.5297 292.182 -76.1531 293.265 -76.7498 294.351L-76.1283 294.101L-73.3825 292.943C-72.6593 291.948 -71.9657 290.976 -71.2668 289.952ZM-67.2682 288.738C-68.4984 289.11 -69.7016 289.484 -70.8756 289.835C-71.5693 290.807 -72.2361 291.782 -72.9297 292.754C-71.8529 292.289 -70.7224 291.829 -69.5894 291.344C-68.8254 290.483 -68.0616 289.622 -67.2682 288.738ZM-63.2988 287.546C-64.4728 287.898 -65.6467 288.249 -66.7937 288.603C-67.5576 289.464 -68.2922 290.302 -69.0266 291.14C-67.9525 290.7 -66.8756 290.235 -65.7719 289.773C-64.9941 289.043 -64.133 288.296 -63.2988 287.546ZM-59.4127 286.373C-60.5304 286.704 -61.6479 287.035 -62.7388 287.368C-63.5408 288.069 -64.3163 288.773 -65.0916 289.476C-64.0736 289.057 -63.053 288.612 -61.9813 288.199C-61.1359 287.606 -60.2877 286.988 -59.4127 286.373ZM-55.698 285.286C-56.7031 285.576 -57.6545 285.872 -58.6328 286.164C-59.4194 286.711 -60.1767 287.234 -60.9365 287.783C-60.0042 287.407 -59.0987 287.029 -58.1371 286.631C-57.3312 286.164 -56.5281 285.724 -55.698 285.286ZM-52.822 284.454C-53.3795 284.607 -53.9666 284.782 -54.524 284.935C-55.0381 285.196 -55.555 285.483 -56.0423 285.746C-54.9975 285.33 -53.923 284.891 -52.822 284.454ZM1250.08 429.675C1150.93 456.474 869.246 510.173 584.894 356.421C556.237 340.93 528.021 327.539 500.331 315.946C527.615 329.165 555.658 344.282 584.476 361.69C893.012 548.008 1154.46 477.368 1249.01 440.424L1248.98 440.708C1154.26 477.687 892.831 548.198 584.343 361.937C554.067 343.655 524.628 327.851 496.032 314.188C494.573 313.6 493.14 313.014 491.681 312.426C521.291 328.142 552.017 346.261 583.951 367.209C915.164 584.64 1157.68 499.898 1247.8 452.565L1247.76 452.875C1157.46 500.266 914.931 584.799 583.794 367.428C551.149 345.992 519.753 327.52 489.544 311.561C487.745 310.835 485.95 310.083 484.149 309.382C515.693 327.453 548.739 348.407 583.403 372.7C935.512 619.503 1160.64 524.015 1246.44 466.176L1246.4 466.511C1160.41 524.409 935.228 619.631 583.248 372.892C548.051 348.234 514.521 326.971 482.506 308.723C480.706 308.022 478.956 307.353 477.153 306.678C510.499 327.064 545.66 350.729 582.827 378.187C953.533 652.156 1163.2 549.967 1244.88 481.745L1244.84 482.106C1162.94 550.384 953.174 652.224 582.672 378.38C545.101 350.621 509.558 326.709 475.9 306.188C473.994 305.451 472.089 304.714 470.18 304.002C505.305 326.675 542.61 353.027 582.278 383.678C968.736 682.079 1165.13 577.861 1243.08 499.763L1243.04 500.15C1164.89 578.306 968.382 682.096 582.126 383.845C542.102 352.951 504.496 326.359 469.086 303.555C467.232 302.849 465.372 302.194 463.515 301.514C500.342 326.413 539.684 355.443 581.732 389.143C980.458 708.582 1166.2 607.83 1240.96 520.978L1240.91 521.416C1165.91 608.296 980.052 708.568 581.577 389.335C539.228 355.397 499.63 326.212 462.599 301.188C460.664 300.474 458.702 299.757 456.791 299.071C495.371 326.229 536.732 357.855 581.21 394.636C988.11 731.034 1166.03 639.628 1238.46 545.956L1238.41 546.446C1165.77 640.096 987.681 730.991 581.028 394.826C536.275 357.81 494.659 326.027 455.875 298.745C453.988 298.088 452.128 297.434 450.242 296.777C490.474 326.13 533.849 360.379 580.634 400.124C991.233 748.894 1164.38 672.683 1235.54 575.162L1235.49 575.703C1164.12 673.151 990.779 748.822 580.48 400.317C533.444 360.364 489.866 325.965 449.454 296.516C447.514 295.853 445.603 295.167 443.661 294.531C485.595 326.111 530.943 362.874 580.083 405.64C989.843 761.98 1161.03 705.933 1232.22 608.44L1232.15 609.059C1160.74 706.424 989.338 761.878 579.931 405.807C530.538 362.86 485.017 325.923 442.9 294.272C441.011 293.641 439.098 292.981 437.206 292.375C480.794 326.125 528.109 365.455 579.534 411.131C984.696 770.891 1156.06 738.032 1228.59 644.735L1228.53 645.353C1155.78 738.446 984.167 770.76 579.385 411.272C527.76 365.42 480.27 325.943 436.529 292.099C434.639 291.468 432.748 290.862 430.856 290.257C476.074 326.148 525.331 368.015 579.018 416.572C976.77 776.399 1149.81 767.789 1224.8 682.601L1224.75 683.143C1149.55 768.154 976.368 776.359 578.836 416.762C524.95 368.029 475.542 326.043 430.171 290.058C428.252 289.45 426.336 288.816 424.442 288.236C471.341 326.3 522.519 370.65 578.466 422.089C967.23 779.611 1142.68 794.544 1221.03 720.391L1220.98 720.906C1142.46 794.86 966.852 779.599 578.287 422.253C522.141 370.638 470.812 326.169 423.813 288.017C421.919 287.437 420.052 286.86 418.184 286.283C466.686 326.486 519.764 373.264 577.92 427.553C957.041 781.456 1135.17 818.162 1217.38 756.866L1217.33 757.355C1134.95 818.478 956.689 781.447 577.738 427.744C519.407 373.306 466.181 326.383 417.577 286.118C415.683 285.538 413.791 284.932 411.894 284.378C462.028 326.697 517 375.956 577.371 433.044C946.843 782.572 1127.57 838.855 1213.94 791.304L1213.89 791.768C1127.35 839.145 946.513 782.617 577.189 433.234C516.673 375.975 461.548 326.623 411.314 284.216C409.444 283.665 407.625 283.145 405.753 282.619C457.468 327.022 514.312 378.707 576.796 438.532C937.071 783.496 1120.15 856.988 1210.74 823.268L1210.7 823.732C1119.96 857.281 936.741 783.541 576.641 438.725C513.985 378.726 457.014 326.951 405.199 282.459C403.327 281.934 401.459 281.357 399.584 280.857C452.907 327.347 511.597 381.456 576.244 444.048C927.838 784.447 1113.04 872.992 1207.8 852.757L1207.75 853.195C1112.86 873.234 927.562 784.498 576.095 444.189C511.299 381.452 452.459 327.224 399.06 280.674C397.214 280.151 395.39 279.683 393.542 279.185C448.446 327.761 508.962 384.213 575.725 449.516C833.411 701.591 1002.99 821.691 1113.39 862.978L1112.16 862.854C1001.64 821.087 832.319 700.857 575.519 449.677C508.608 384.229 447.968 327.661 392.962 279.023C391.113 278.526 389.268 278.003 387.417 277.532C443.905 328.166 506.272 386.99 575.149 455.004C797.184 674.227 954.872 798.006 1065.93 858.234L1065.15 858.156C954.06 797.716 796.509 673.925 574.97 455.168C505.944 387.009 443.478 328.097 386.888 277.401C385.064 276.932 383.24 276.464 381.415 275.995C439.461 328.685 503.63 389.824 574.6 460.494C776.465 661.508 925.892 785.476 1035.89 855.231L1035.25 855.167C925.231 785.306 775.914 661.323 574.448 460.661C503.356 389.848 439.09 328.596 380.94 275.869C379.116 275.4 377.292 274.932 375.492 274.492C435.097 329.212 501.068 392.666 574.078 465.987C761.135 653.753 903.957 777.062 1012.43 852.886L1011.92 852.835C903.455 776.933 760.729 653.739 573.873 466.149C500.711 392.708 434.643 329.141 374.963 274.361C373.136 273.918 371.339 273.452 369.537 273.037C430.703 329.762 498.45 395.528 573.53 471.478C749.058 648.979 886.207 770.992 992.99 850.943L992.507 850.895C885.732 770.866 748.679 648.968 573.353 471.616C498.149 395.55 430.303 329.696 369.064 272.886C181.538 227.9 29.7252 260.734 -50.3912 283.734C-53.0166 284.773 -55.5616 285.82 -58.0478 286.822C-60.4573 288.143 -62.8082 289.418 -65.0733 290.65C-67.2619 292.201 -69.3916 293.707 -71.4357 295.168L-72.9275 296.529C-74.3872 297.841 -75.7907 299.133 -77.1622 300.376C-78.9088 302.388 -80.6183 304.3 -82.2664 306.14C-83.8136 308.329 -85.2997 310.445 -86.7432 312.41C-88.0886 314.748 -89.3701 316.989 -90.663 319.073C-91.8039 321.537 -92.932 323.871 -94.0446 326.051C-94.5967 327.506 -95.1438 328.909 -95.7124 330.258L-95.6248 329.382C-95.4468 328.957 -95.2662 328.506 -95.115 328.079C-95.2801 328.375 -95.4453 328.671 -95.5836 328.969L-95.3903 327.036L-95.0968 325.998L-95.3182 326.314L-95.2667 325.799L-94.8877 325.264C-94.5813 324.097 -94.2456 322.907 -93.9366 321.714C-94.2757 322.123 -94.6416 322.529 -94.9807 322.937L-94.9369 322.499C-94.5684 322.067 -94.1703 321.612 -93.7993 321.155C-93.4851 319.911 -93.1441 318.669 -92.8274 317.399C-93.4288 317.99 -94.0275 318.555 -94.5968 319.097L-94.5582 318.71C-93.9594 318.145 -93.3312 317.557 -92.6979 316.917C-92.3785 315.621 -92.0325 314.328 -91.7106 313.007C-92.5369 313.679 -93.3608 314.326 -94.1794 314.921L-94.1459 314.586C-93.3247 313.965 -92.4714 313.295 -91.6181 312.625C-91.2962 311.304 -90.9718 309.956 -90.6179 308.586C-91.5759 309.219 -92.5288 309.801 -93.455 310.385C-93.6617 311.64 -93.8928 312.867 -94.097 314.096L-93.7131 310.255L-93.6837 310.232C-93.432 308.799 -93.1752 307.315 -92.9451 305.828L-93.288 306.002L-93.2596 305.718L-92.8899 305.547L-92.3404 302.217L-92.1465 301.091L-92.8242 301.362L-92.7959 301.078L-92.0913 300.81C-91.8345 299.326 -91.575 297.816 -91.313 296.28L-92.3207 296.596L-92.295 296.338L-91.2604 296.025C-82.7924 246.025 -70.0871 178.59 -29.8903 137.489C15.349 91.2429 95.4027 78.3643 243.362 161.13C240.112 158.383 236.885 155.666 233.684 152.977C86.715 67.0821 7.40855 75.7395 -36.6339 120.049C-63.913 147.47 -77.6721 188.558 -85.5988 229.343L-85.3309 226.662C-77.2987 186.721 -63.5428 146.752 -36.8062 119.875C7.20423 75.615 86.3304 66.8614 232.684 152.122C229.558 149.492 226.48 146.919 223.373 144.37C76.9179 55.5067 -1.93963 60.4861 -44.972 103.1C-60.2587 118.234 -71.0332 138.141 -78.694 160.26L-78.5832 159.151C-70.9048 137.399 -60.2199 117.847 -45.1444 102.926C-2.17091 60.3588 76.4259 55.2753 222.172 143.365C219.142 140.849 216.137 138.362 213.157 135.903C66.4598 43.7611 -12.2557 45.4223 -54.4164 86.6389C-62.0789 94.1261 -68.5149 102.907 -73.9622 112.647L-73.8978 112.002C-68.5222 102.438 -62.1284 93.8087 -54.6157 86.4628C-12.519 45.3439 65.863 43.4932 211.703 134.716C208.821 132.345 205.913 129.972 203.081 127.658C55.4944 31.9389 -23.3008 30.598 -64.7715 70.608C-66.7226 72.4957 -68.574 74.4715 -70.3526 76.5328L-70.3088 76.0946C-68.5942 74.1311 -66.8067 72.253 -64.9439 70.4345C-23.5934 30.5427 54.8196 31.6371 201.376 126.264C198.568 123.979 195.781 121.748 193.021 119.519C53.6575 26.4441 -24.5547 16.8304 -67.4928 47.92L-67.4593 47.5849C-24.6301 16.7708 53.1093 26.2332 191.139 118.003C188.479 115.863 185.865 113.805 183.253 111.722C56.4166 24.6111 -20.0783 5.9528 -65.1895 24.8752L-65.1611 24.5916C-20.2853 5.85396 55.5347 24.2105 180.793 109.758C178.431 107.881 176.094 106.034 173.782 104.214C57.5447 22.2766 -16.7796 -2.90778 -63.3061 6.03206L-63.2829 5.80006C-17.1771 -2.99958 56.1466 21.6162 170.285 101.496C168.298 99.9432 166.287 98.3624 164.324 96.8384C57.378 19.6044 -14.4459 -10.2507 -61.7525 -9.51165L-61.7319 -9.71784C-15.163 -10.4004 55.0814 18.4376 159.037 92.7692C157.599 91.6884 156.191 90.5843 154.781 89.5061C87.2101 39.6128 33.5289 8.36886 -8.89627 -8.26407L-8.11768 -8.18625C31.9748 7.64075 82.05 36.4415 144.271 81.5304C90.7592 41.2693 45.8821 12.5455 8.36575 -6.53874L8.95631 -6.47971C48.8421 13.8567 96.9978 45.043 154.906 89.3363C161.016 93.8523 167.248 98.5105 173.574 103.308C179.536 107.679 185.568 112.161 191.719 116.812C197.329 120.913 203.062 125.131 208.89 129.488C214.935 133.842 221.072 138.36 227.333 142.995C233.33 147.292 239.475 151.733 245.687 156.311C251.665 160.527 257.734 164.909 263.901 169.405C269.83 173.564 275.858 177.811 281.976 182.25C287.859 186.327 293.815 190.489 299.892 194.793C305.678 198.756 311.54 202.778 317.517 206.995C323.208 210.818 328.973 214.726 334.829 218.8C340.375 222.453 346.018 226.219 351.728 230.122C357.381 233.785 363.156 237.591 368.976 241.479C374.589 245.008 380.266 248.7 386.019 252.451C391.534 255.866 397.125 259.341 402.783 262.952C408.312 266.239 413.881 269.659 419.522 273.165C424.779 276.189 430.078 279.323 435.45 282.541C440.614 285.4 445.849 288.371 451.105 291.396C456.333 294.157 461.61 296.976 466.93 299.902C471.864 302.348 476.844 304.877 481.873 307.462C486.619 309.629 491.359 311.847 496.148 314.122C525.238 326.09 554.881 340.117 585.031 356.408C869.401 509.98 1151.09 456.23 1250.11 429.417L1250.08 429.675Z" fill="white"/>
</svg>
